<svg xmlns="http://www.w3.org/2000/svg" version="1.1" xmlns:xlink="http://www.w3.org/1999/xlink" xmlns:svgjs="http://svgjs.com/svgjs" width="1440" height="560" preserveAspectRatio="none" viewBox="0 0 1440 560"><g mask="url(&quot;#SvgjsMask1000&quot;)" fill="none"><rect width="1440" height="560" x="0" y="0" fill="#0e2a47"></rect><path d="M0,572.016C110.72,557.209,228.655,562.198,319.784,497.594C409.3,434.134,459.419,329.277,490.743,224.115C519.338,128.115,508.391,27.962,488.939,-70.299C470.349,-164.208,440.927,-255.486,381.019,-330.155C319.598,-406.709,238.444,-464.324,146.108,-497.597C49.874,-532.275,-53.693,-545.185,-153.499,-522.769C-257.34,-499.447,-358.279,-451.232,-425.976,-369.11C-492.94,-287.878,-489.196,-174.989,-522.515,-75.126C-564.681,51.251,-675.724,165.584,-647.844,295.86C-619.454,428.515,-504.715,537.972,-379.921,591.168C-260.864,641.918,-128.28,589.171,0,572.016" fill="#0b2239"></path><path d="M1440 1148.221C1547.72 1134.952 1614.398 1028.9850000000001 1693.949 955.153 1759.76 894.073 1836.714 839.279 1864.772 753.987 1891.656 672.263 1840.585 588.055 1843.001 502.057 1846.1190000000001 391.06600000000003 1951.895 263.328 1880.953 177.91199999999998 1810.59 93.19299999999998 1667.309 170.64800000000002 1557.831 158.70499999999998 1472.585 149.40499999999997 1395.242 114.03399999999999 1309.504 115.57100000000003 1198.864 117.555 1066.391 90.15300000000002 988.6569999999999 168.909 911.49 247.091 939.182 378.512 941.575 488.337 943.6379999999999 583.045 968.238 671.5550000000001 1001.5409999999999 760.238 1037.209 855.221 1066.405 955.858 1142.388 1023.0930000000001 1224.647 1095.882 1330.984 1161.649 1440 1148.221" fill="#113255"></path></g><defs><mask id="SvgjsMask1000"><rect width="1440" height="560" fill="#ffffff"></rect></mask></defs></svg>